<svg xmlns="http://www.w3.org/2000/svg" style="display: none;">
  
    <symbol id="icon-angle-down" viewBox="0 0 512 512">
      <path d="m399 210c0 3-1 5-3 7l-133 133c-2 2-5 3-7 3-2 0-5-1-7-3l-133-133c-2-2-3-4-3-7 0-2 1-4 3-6l15-15c1-1 4-2 6-2 3 0 5 1 7 2l112 113 112-113c2-1 4-2 7-2 2 0 5 1 6 2l15 15c2 2 3 4 3 6z"/>
    </symbol>
  
    <symbol id="icon-angle-up" viewBox="0 0 512 512">
      <path d="m399 338c0 3-1 5-3 7l-15 14c-1 2-4 3-6 3-3 0-5-1-7-3l-112-112-112 112c-2 2-4 3-7 3-2 0-5-1-6-3l-15-14c-2-2-3-4-3-7 0-2 1-4 3-6l133-133c2-2 5-3 7-3 2 0 5 1 7 3l133 133c2 2 3 4 3 6z"/>
    </symbol>
  
    <symbol id="icon-angle-left" viewBox="0 0 512 512">
      <path d="m344 155c0 3-1 5-3 7l-112 112 112 113c2 1 3 4 3 6 0 3-1 5-3 7l-14 14c-2 2-5 3-7 3-2 0-5-1-7-3l-133-133c-2-2-3-4-3-7 0-2 1-4 3-6l133-133c2-2 5-3 7-3 2 0 5 1 7 3l14 14c2 2 3 4 3 6z"/>
    </symbol>
  
    <symbol id="icon-angle-right" viewBox="0 0 512 512">
      <path d="m335 274c0 3-1 5-3 7l-133 133c-2 2-5 3-7 3-2 0-5-1-7-3l-14-14c-2-2-3-4-3-7 0-2 1-5 3-6l112-113-112-112c-2-2-3-4-3-7 0-2 1-4 3-6l14-14c2-2 5-3 7-3 2 0 5 1 7 3l133 133c2 2 3 4 3 6z"/>
    </symbol>
  
    <symbol id="icon-angle-double-down" viewBox="0 0 512 512">
      <path d="m399 247c0 2-1 5-3 6l-133 134c-2 1-5 2-7 2-2 0-5-1-7-2l-133-134c-2-1-3-4-3-6 0-3 1-5 3-7l15-14c1-2 4-3 6-3 3 0 5 1 7 3l112 112 112-112c2-2 4-3 7-3 2 0 5 1 6 3l15 14c2 2 3 4 3 7z m0-110c0 3-1 5-3 7l-133 133c-2 2-5 3-7 3-2 0-5-1-7-3l-133-133c-2-2-3-4-3-7 0-2 1-5 3-6l15-15c1-2 4-3 6-3 3 0 5 1 7 3l112 113 112-113c2-2 4-3 7-3 2 0 5 1 6 3l15 15c2 1 3 4 3 6z"/>
    </symbol>
  
    <symbol id="icon-facebook-square" viewBox="0 0 512 512">
      <path d="m393 37c23 0 42 8 58 24 16 16 24 35 24 58l0 274c0 23-8 42-24 58-16 16-35 24-58 24l-54 0 0-170 57 0 9-66-66 0 0-42c0-11 3-19 7-24 5-5 13-8 26-8l35 0 0-60c-12-1-29-2-51-2-26 0-46 7-62 23-15 15-23 36-23 64l0 49-57 0 0 66 57 0 0 170-152 0c-23 0-42-8-58-24-16-16-24-35-24-58l0-274c0-23 8-42 24-58 16-16 35-24 58-24z"/>
    </symbol>
  
</svg>
